<svg xmlns="http://www.w3.org/2000/svg" version="1.1" xmlns:xlink="http://www.w3.org/1999/xlink" width="512" height="512" x="0" y="0" viewBox="0 0 64 64" style="enable-background:new 0 0 512 512" xml:space="preserve" class="">
   <g>
      <g data-name="17-Education">
         <path fill="#fc6067" d="M32 2A24.027 24.027 0 0 0 8 26c0 18.294 22.45 35.098 23.406 35.804a1 1 0 0 0 1.188 0C33.55 61.098 56 44.294 56 26A24.027 24.027 0 0 0 32 2z" opacity="1" data-original="#fc6067" class=""></path>
         <circle cx="32" cy="26" r="18" fill="#e7eaef" opacity="1" data-original="#e7eaef" class=""></circle>
         <path fill="#4e5460" d="M41 21H23a1 1 0 0 0-1 1v10a1 1 0 0 0 .2.6A12.534 12.534 0 0 0 32 37a12.534 12.534 0 0 0 9.8-4.4 1 1 0 0 0 .2-.6V22a1 1 0 0 0-1-1z" opacity="1" data-original="#4e5460" class=""></path>
         <path fill="#fcb860" d="M45 30a1 1 0 0 1-1-1v-7a1 1 0 0 1 2 0v7a1 1 0 0 1-1 1z" opacity="1" data-original="#fcb860"></path>
         <path fill="#565d69" d="m45.419 21.092-13-6a1.004 1.004 0 0 0-.838 0l-13 6a1 1 0 0 0 0 1.816l13 6a1.002 1.002 0 0 0 .838 0l13-6a1 1 0 0 0 0-1.816z" opacity="1" data-original="#565d69"></path>
      </g>
   </g>
</svg>